<?xml version="1.0" encoding="UTF-8"?>
<svg id="Layer_1" data-name="Layer 1" xmlns="http://www.w3.org/2000/svg" viewBox="0 0 484.57 484.57">
  <defs>
    <style>
      .cls-1 {
        fill: #fff;
      }
    </style>
  </defs>
  <path class="cls-1" d="M245.88,11.54c-77.66,0-140.84,63.18-140.84,140.84v238.08c0,38.91,31.66,70.57,70.57,70.57h133.86c38.91,0,70.57-31.66,70.57-70.57V145.7c0-73.97-60.18-134.16-134.16-134.16Zm120.63,378.92c0,31.5-25.54,57.04-57.04,57.04H175.61c-31.5,0-57.04-25.54-57.04-57.04V152.38c0-70.31,57-127.31,127.31-127.31h0c66.62,0,120.63,54.01,120.63,120.63v244.76Z"/>
  <path class="cls-1" d="M242.54,84.29c-23.21,0-42.03,18.82-42.03,42.03s18.82,42.03,42.03,42.03,42.03-18.82,42.03-42.03-18.82-42.03-42.03-42.03Zm0,70.54c-15.72,0-28.51-12.79-28.51-28.51s12.79-28.51,28.51-28.51,28.51,12.79,28.51,28.51-12.79,28.51-28.51,28.51Z"/>
</svg>