<?xml version="1.0" encoding="UTF-8"?>
<svg id="Layer_1" data-name="Layer 1" xmlns="http://www.w3.org/2000/svg" viewBox="0 0 484.57 484.57">
  <defs>
    <style>
      .cls-1 {
        fill: #fff;
      }
    </style>
  </defs>
  <path class="cls-1" d="M381.54,4.47H103.02c-23.35,0-42.34,18.99-42.34,42.34V437.76c0,23.35,18.99,42.34,42.34,42.34l237.56-.52,83.3-73.08V46.81c0-23.35-18.99-42.34-42.34-42.34Zm-55.96,460.63H103.02c-15.1,0-27.34-12.24-27.34-27.34V46.81c0-15.1,12.24-27.34,27.34-27.34H381.54c15.1,0,27.34,12.24,27.34,27.34V392.02h-55.96c-15.1,0-27.34,12.24-27.34,27.34v45.74Zm15-5.99v-39.75c0-6.8,5.54-12.34,12.34-12.34l47.43-.35-59.77,52.44Z"/>
  <path class="cls-1" d="M359.18,117.11H126.55c-9.31,0-9.32,10.7,0,10.7h232.63c9.31,0,9.32-10.7,0-10.7Z"/>
  <path class="cls-1" d="M359.18,160.04H126.55c-9.31,0-9.32,10.7,0,10.7h232.63c9.31,0,9.32-10.7,0-10.7Z"/>
  <path class="cls-1" d="M359.18,202.97H126.55c-9.31,0-9.32,10.7,0,10.7h232.63c9.31,0,9.32-10.7,0-10.7Z"/>
  <path class="cls-1" d="M359.18,245.89H126.55c-9.31,0-9.32,10.7,0,10.7h232.63c9.31,0,9.32-10.7,0-10.7Z"/>
</svg>