<?xml version="1.0" encoding="UTF-8"?>
<svg id="Layer_1" data-name="Layer 1" xmlns="http://www.w3.org/2000/svg" viewBox="0 0 484.57 484.57">
  <defs>
    <style>
      .cls-1 {
        fill: #fff;
      }
    </style>
  </defs>
  <path class="cls-1" d="M338.38,205.74H115.04c-8.93,0-8.95,13.88,0,13.88h223.33c8.93,0,8.95-13.88,0-13.88Z"/>
  <path class="cls-1" d="M338.38,269.07H115.04c-8.93,0-8.95,13.88,0,13.88h223.33c8.93,0,8.95-13.88,0-13.88Z"/>
  <path class="cls-1" d="M338.38,332.39H115.04c-8.93,0-8.95,13.88,0,13.88h223.33c8.93,0,8.95-13.88,0-13.88Z"/>
  <path class="cls-1" d="M338.38,395.72H115.04c-8.93,0-8.95,13.89,0,13.89h223.33c8.93,0,8.95-13.89,0-13.89Z"/>
  <path class="cls-1" d="M138.62,149.36c0-9.84-8-17.83-17.83-17.83s-17.83,8-17.83,17.83,8,17.83,17.83,17.83,17.83-8,17.83-17.83Zm-28.26,0c0-5.75,4.67-10.43,10.42-10.43s10.42,4.68,10.42,10.43-4.67,10.42-10.42,10.42-10.42-4.68-10.42-10.42Z"/>
  <path class="cls-1" d="M173.75,167.19c9.84,0,17.83-8,17.83-17.83s-8-17.83-17.83-17.83-17.83,8-17.83,17.83,8,17.83,17.83,17.83Zm0-28.26c5.75,0,10.43,4.68,10.43,10.43s-4.68,10.42-10.43,10.42-10.42-4.68-10.42-10.42,4.67-10.43,10.42-10.43Z"/>
  <path class="cls-1" d="M226.71,167.19c9.83,0,17.83-8,17.83-17.83s-8-17.83-17.83-17.83-17.83,8-17.83,17.83,8,17.83,17.83,17.83Zm0-28.26c5.75,0,10.43,4.68,10.43,10.43s-4.67,10.42-10.43,10.42-10.42-4.68-10.42-10.42,4.67-10.43,10.42-10.43Z"/>
  <path class="cls-1" d="M279.67,167.19c9.84,0,17.83-8,17.83-17.83s-8-17.83-17.83-17.83-17.83,8-17.83,17.83,8,17.83,17.83,17.83Zm0-28.26c5.75,0,10.42,4.68,10.42,10.43s-4.67,10.42-10.42,10.42-10.42-4.68-10.42-10.42,4.67-10.43,10.42-10.43Z"/>
  <path class="cls-1" d="M314.81,149.36c0,9.83,8,17.83,17.83,17.83s17.83-8,17.83-17.83-8-17.83-17.83-17.83-17.83,8-17.83,17.83Zm17.83-10.43c5.74,0,10.42,4.68,10.42,10.43s-4.68,10.42-10.42,10.42-10.43-4.68-10.43-10.42,4.68-10.43,10.43-10.43Z"/>
  <path class="cls-1" d="M412.97,125.46c-3.27,.07-7.38,.02-12.02-.29v-42.11h-46.52c8.53-7.69,13.41-18.97,13.5-28.96,.14-14.01-8.28-24.49-22.54-28.02-10.45-2.59-19.69-1.1-26.74,4.31-7.04,5.4-11.78,14.64-13.58,26.05-.06-.1-.12-.2-.18-.29-5.66-9.5-3.82-19.26-.84-31.04,1.68-6.65-2.81-11.6-7.89-12.89-5.05-1.26-11.02,.85-12.68,7.38-4.05,15.97-6.82,36.53,7.79,53.94,3.01,3.59,6.58,6.79,10.51,9.52H61.11V472.69H400.95V146.53c2.96,.16,5.94,.26,8.97,.26,1.06,0,2.12-.01,3.19-.03,6.85-.13,10.43-5.77,10.34-11.01-.1-5.21-3.76-10.28-10.48-10.28Zm-23.13-31.29v29.78c-18.49-2.8-40.89-10.45-54.85-29.78h54.85Zm0,367.41H72.22V94.17h237.83c13.82,28.16,42.83,46.44,79.8,51.28V461.58Zm23.13-322.23c-45.02,.91-81.07-17.29-96.34-48.56-1.13-2.31-2.11-4.98-2.9-7.95l-.43-1.61-1.49-.74c-5.72-2.87-10.87-6.92-14.88-11.71-12.37-14.75-10.12-32.22-6.28-47.36,.45-1.76,1.64-2.16,2.63-2.16,.41,0,.79,.08,1.06,.14,.55,.14,3.26,.99,2.53,3.89-3.29,13-5.44,24.73,1.66,36.64,1.76,2.96,4.11,5.79,6.96,8.41l6.05,5.55,.16-8.21c.25-13.32,4.43-24.04,11.46-29.42,5.27-4.05,12.16-5.05,20.44-3,14.87,3.69,16.99,14.59,16.93,20.76-.12,12.23-8.96,26.85-23.54,30.15-3.05,.69-6.3,.92-9.67,.68l-6.65-.45,3.12,5.89c20.93,39.56,69.43,42.91,89.33,42.57h.09c2.51,0,2.82,2.11,2.85,3.02,0,.57-.09,3.4-3.08,3.46Z"/>
  <path class="cls-1" d="M343.86,74.48c12.3-8.1,11.38-17.07,10.42-20.56-1.99-7.18-9.31-12.63-17.41-12.97-8.37-.38-15.36,4.81-18.68,13.81-2.1,5.69-2.3,12.27-.59,19.55l.47,2.02,1.98,.65c3.29,1.08,6.57,1.62,9.73,1.62,5.1,0,9.92-1.39,14.08-4.13Zm-19.49-3.95c-.91-5.02-.66-9.36,.76-13.21,2.21-6,6.24-9.23,11.42-8.97,4.82,.2,9.47,3.52,10.59,7.55,1.14,4.12-1.47,8.52-7.36,12.39-5.33,3.51-11.04,3.31-15.42,2.24Z"/>
</svg>