<?xml version="1.0" encoding="UTF-8"?>
<svg id="Layer_1" data-name="Layer 1" xmlns="http://www.w3.org/2000/svg" viewBox="0 0 484.57 484.57">
  <defs>
    <style>
      .cls-1 {
        fill: #fff;
      }
    </style>
  </defs>
  <path class="cls-1" d="M47.35,18.9h-.01c-2.07,0-4.04,.82-5.5,2.27-1.46,1.46-2.28,3.45-2.28,5.51V457.08c0,4.29,3.47,7.77,7.76,7.79l389.89,.81h.01c2.06,0,4.04-.81,5.5-2.27,1.46-1.46,2.28-3.45,2.28-5.51V27.5c0-4.3-3.47-7.78-7.76-7.79l-389.89-.81ZM429.44,450.09l-374.32-.79V34.49l374.32,.78V450.09Z"/>
  <path class="cls-1" d="M165.35,176.88c10.11,0,19.61-3.93,26.76-11.06,7.17-7.14,11.13-16.66,11.14-26.78,.02-10.12-3.91-19.65-11.05-26.82-7.15-7.17-16.67-11.13-26.78-11.15h-.06c-20.87,0-37.88,16.97-37.91,37.84-.01,10.13,3.92,19.68,11.08,26.85,7.15,7.16,16.66,11.11,26.77,11.12h.06Zm-22.33-37.94c.02-12.3,10.04-22.3,22.34-22.3h.04c5.96,.01,11.55,2.34,15.77,6.56,4.21,4.23,6.52,9.84,6.52,15.81,0,5.96-2.34,11.57-6.57,15.78-4.22,4.2-9.82,6.52-15.78,6.52h-.04c-5.95,0-11.55-2.33-15.76-6.54-4.22-4.23-6.54-9.85-6.53-15.82Z"/>
  <path class="cls-1" d="M90.14,354.31H394.94c4.3,0,7.79-3.48,7.79-7.78V69c0-4.3-3.49-7.79-7.79-7.79H89.7c-4.3,0-7.79,3.49-7.79,7.79V344.49c0,.96,.2,1.87,.52,2.71,.35,3.97,3.65,7.1,7.72,7.1Zm297.02-17.59v2.02H97.93v-51.42l48.3-59.72,58.61,49.82c1.63,1.39,3.75,2.05,5.88,1.81,2.13-.23,4.06-1.32,5.36-3.02l79.8-104.71,91.28,88.57v76.65ZM97.48,76.78H387.16V238.36l-86.73-84.15c-1.6-1.55-3.76-2.34-6-2.18-2.22,.17-4.26,1.27-5.61,3.04l-80.15,105.15-58.43-49.67c-1.61-1.36-3.68-2-5.77-1.83-2.09,.2-4.01,1.23-5.33,2.86l-41.66,51.51V76.78Z"/>
</svg>