<?xml version="1.0" encoding="UTF-8"?>
<svg id="Layer_1" data-name="Layer 1" xmlns="http://www.w3.org/2000/svg" viewBox="0 0 484.57 484.57">
  <defs>
    <style>
      .cls-1 {
        fill: #fff;
      }
    </style>
  </defs>
  <path class="cls-1" d="M413.6,70.96C367.84,25.2,307,0,242.28,0S116.72,25.2,70.96,70.96C25.2,116.72,0,177.57,0,242.28s25.2,125.56,70.96,171.32c45.76,45.76,106.6,70.96,171.32,70.96s125.56-25.2,171.32-70.96c45.76-45.76,70.96-106.6,70.96-171.32s-25.2-125.56-70.96-171.32ZM14.35,242.28C14.35,116.4,116.4,14.35,242.28,14.35c116.05,0,211.84,86.73,226.1,198.9h0c0,46.72-44.22,58.1-44.22,58.1,0,0-85.78,21.86-99.93,117.09-14.15,95.23-90.2,80.86-90.2,80.86h0s-.14,.76-.14,.76C111.9,465.64,14.35,365.36,14.35,242.28Zm290.91,219.12c17.44-16.14,28.59-39.91,33.18-70.86,5.23-35.22,21.65-63.55,48.79-84.21,20.73-15.78,40.34-21.05,40.52-21.09,1.43-.37,14.35-3.89,27.4-14.14,4.86-3.82,10.09-8.87,14.67-15.35-5.72,98.08-73.44,179.51-164.56,205.65Z"/>
</svg>